<?xml version='1.0' encoding='utf-8'?>
<svg xmlns="http://www.w3.org/2000/svg" xmlns:ns1="xmlns" version="1.1" id="Frosty Editor v1.0.7.0" ns1:xlink="http://www.w3.org/1999/xlink" viewBox="0 0 40 40" width="40" height="40" preserveAspectRatio="xMidYMid meet">
  <path stroke="none" fill="#ffffff" d="M 35.690,13.530 C 32.480,19.090 29.270,24.650 26.060,30.210 26.010,30.300 25.910,30.350 25.810,30.350 23.043,30.350 20.277,30.350 17.510,30.350 17.410,30.350 17.310,30.400 17.260,30.490 16.043,32.600 14.827,34.710 13.610,36.820 13.500,37.010 13.640,37.250 13.860,37.250 19.173,37.250 24.487,37.250 29.800,37.250 29.900,37.250 30.000,37.200 30.050,37.110 33.317,31.453 36.583,25.797 39.850,20.140 39.900,20.050 39.900,19.940 39.850,19.850 38.633,17.740 37.417,15.630 36.200,13.520 36.090,13.330 35.810,13.330 35.700,13.520 35.697,13.523 35.693,13.527 35.690,13.530 Z M 8.130,33.950 C 5.473,29.347 2.817,24.743 0.160,20.140 0.110,20.050 0.110,19.940 0.160,19.850 3.427,14.197 6.693,8.543 9.960,2.890 10.010,2.800 10.110,2.750 10.210,2.750 12.647,2.750 15.083,2.750 17.520,2.750 17.740,2.750 17.880,2.990 17.770,3.180 14.560,8.740 11.350,14.300 8.140,19.860 8.090,19.950 8.090,20.060 8.140,20.150 9.523,22.547 10.907,24.943 12.290,27.340 12.340,27.430 12.340,27.540 12.290,27.630 11.073,29.740 9.857,31.850 8.640,33.960 8.530,34.150 8.250,34.150 8.140,33.960 8.137,33.957 8.133,33.953 8.130,33.950 Z " />
</svg>