<?xml version="1.0" encoding="UTF-8" standalone="no"?>
<!DOCTYPE svg PUBLIC "-//W3C//DTD SVG 20010904//EN" "http://www.w3.org/TR/2001/REC-SVG-20010904/DTD/svg10.dtd"[]>
<svg version="1.1" id="Frosty Editor v1.0.7.0" xmlns="http://www.w3.org/2000/svg" d1p1:xlink="http://www.w3.org/1999/xlink" viewBox="0 0 40 40" xmlns:d1p1="xmlns">
  <path stroke="none" fill="#ffffffff" d="M 26.000,14.000 C 26.000,10.000 26.000,6.000 26.000,2.000 22.000,2.000 18.000,2.000 14.000,2.000 14.000,6.000 14.000,10.000 14.000,14.000 10.000,14.000 6.000,14.000 2.000,14.000 2.000,18.000 2.000,22.000 2.000,26.000 6.000,26.000 10.000,26.000 14.000,26.000 14.000,30.000 14.000,34.000 14.000,38.000 18.000,38.000 22.000,38.000 26.000,38.000 26.000,34.000 26.000,30.000 26.000,26.000 30.000,26.000 34.000,26.000 38.000,26.000 38.000,22.000 38.000,18.000 38.000,14.000 34.000,14.000 30.000,14.000 26.000,14.000 Z " />
</svg>