<?xml version="1.0" encoding="UTF-8" standalone="no"?>
<!DOCTYPE svg PUBLIC "-//W3C//DTD SVG 20010904//EN" "http://www.w3.org/TR/2001/REC-SVG-20010904/DTD/svg10.dtd"[]>
<svg version="1.1" id="Frosty Editor v1.0.7.0" xmlns="http://www.w3.org/2000/svg" d1p1:xlink="http://www.w3.org/1999/xlink" viewBox="0 0 64 64" xmlns:d1p1="xmlns">
  <path stroke="none" fill="#000" d="M 30.400,38.600 C 29.133,38.600 27.867,38.600 26.600,38.600 28.400,35.367 30.200,32.133 32.000,28.900 33.800,32.133 35.600,35.367 37.400,38.600 36.133,38.600 34.867,38.600 33.600,38.600 34.233,39.800 34.867,41.000 35.500,42.200 38.600,42.200 41.700,42.200 44.800,42.200 40.533,34.467 36.267,26.733 32.000,19.000 27.767,26.733 23.533,34.467 19.300,42.200 22.367,42.200 25.433,42.200 28.500,42.200 29.133,41.000 29.767,39.800 30.400,38.600 Z " />
</svg>