<svg width="64" height="64" xmlns="http://www.w3.org/2000/svg" version="1.1">
 <g>
  <title>Layer 1</title>
  <path fill="#000" d="m39.3,32c0,4 -3.3,7.3 -7.3,7.3c-4,0 -7.3,-3.3 -7.3,-7.3c0,-4 3.3,-7.3 7.3,-7.3c4,0.1 7.3,3.3 7.3,7.3c0,0 0,0 0,0zm6.7,1.5c0,-1 0,-2 0,-3c-1.3,0 -2.6,0 -3.9,0c-0.1,-0.8 -0.3,-1.5 -0.6,-2.3c1.133,-0.633 2.267,-1.267 3.4,-1.9c-0.5,-0.867 -1,-1.733 -1.5,-2.6c-1.133,0.633 -2.267,1.267 -3.4,1.9c-0.5,-0.6 -1,-1.2 -1.7,-1.7c0.633,-1.133 1.267,-2.267 1.9,-3.4c-0.867,-0.5 -1.733,-1 -2.6,-1.5c-0.633,1.133 -1.267,2.267 -1.9,3.4c-0.7,-0.3 -1.5,-0.5 -2.3,-0.6c0,-1.267 0,-2.533 0,-3.8c-1,0 -2,0 -3,0c0,1.3 0,2.6 0,3.9c-0.8,0.1 -1.5,0.3 -2.3,0.6c-0.633,-1.1 -1.267,-2.2 -1.9,-3.3c-0.867,0.5 -1.733,1 -2.6,1.5c0.633,1.133 1.267,2.267 1.9,3.4c-0.6,0.5 -1.2,1 -1.7,1.7c-1.133,-0.633 -2.267,-1.267 -3.4,-1.9c-0.5,0.867 -1,1.733 -1.5,2.6c1.133,0.633 2.267,1.267 3.4,1.9c-0.3,0.7 -0.5,1.5 -0.6,2.3c-1.233,0 -2.467,0 -3.7,0c0,1 0,2 0,3c1.3,0 2.6,0 3.9,0c0.1,0.8 0.3,1.5 0.6,2.3c-1.133,0.633 -2.267,1.267 -3.4,1.9c0.5,0.867 1,1.733 1.5,2.6c1.133,-0.633 2.267,-1.267 3.4,-1.9c0.5,0.6 1,1.2 1.7,1.7c-0.633,1.133 -1.267,2.267 -1.9,3.4c0.867,0.5 1.733,1 2.6,1.5c0.633,-1.133 1.267,-2.267 1.9,-3.4c0.7,0.3 1.5,0.5 2.3,0.6c0,1.2 0,2.4 0,3.6c1,0 2,0 3,0c0,-1.3 0,-2.6 0,-3.9c0.8,-0.1 1.5,-0.3 2.3,-0.6c0.633,1.1 1.267,2.2 1.9,3.3c0.867,-0.5 1.733,-1 2.6,-1.5c-0.667,-1.1 -1.333,-2.2 -2,-3.3c0.6,-0.5 1.2,-1 1.7,-1.7c1.133,0.633 2.267,1.267 3.4,1.9c0.5,-0.867 1,-1.733 1.5,-2.6c-1.1,-0.633 -2.2,-1.267 -3.3,-1.9c0.3,-0.7 0.5,-1.5 0.6,-2.3c1.233,0 2.467,0 3.7,0c0,0.033 0,0.067 0,0.1z" id="svg_4"/>
  <path fill="#000" d="m32,29.3c-1.5,0 -2.7,1.2 -2.7,2.7c0,1.5 1.2,2.7 2.7,2.7c1.5,0 2.7,-1.2 2.7,-2.7c0,-1.5 -1.2,-2.7 -2.7,-2.7c0,0 0,0 0,0z" id="svg_5"/>
 </g>

</svg>