<svg width="64" height="64" xmlns="http://www.w3.org/2000/svg" version="1.1">
 <g>
  <title>Layer 1</title>
  <path id="svg_4" d="m32,39c-1.333,1.333 -2.667,2.667 -4,4c2.667,0 5.333,0 8,0c-1.333,-1.333 -2.667,-2.667 -4,-4z" fill="#ffffffff"/>
  <path stroke="null" id="svg_13" d="m36,28c0,-2.667 0,-5.333 0,-8c-0.1,0 -0.2,0 -0.3,0c-0.3,0 -0.6,0 -0.9,0c-1.867,0 -3.733,0 -5.6,0c-0.3,0 -0.6,0 -0.9,0c-0.1,0 -0.2,0 -0.3,0c0,2.667 0,5.333 0,8c-2.667,0 -5.333,0 -8,0c0,0.1 0,0.2 0,0.3c0,0.3 0,0.6 0,0.9c0,1.867 0,3.733 0,5.6c0,0.2 0,0.4 0,0.6c0,0.1 0,0.2 0,0.3c0,0.1 0,0.2 0,0.3c2.667,0 5.333,0 8,0c0,2.667 0,5.333 0,8c0.1,0 0.2,0 0.3,0c0.1,0 0.2,0 0.3,0c0.2,0 0.4,0 0.6,0c1.867,0 3.733,0 5.6,0c0.2,0 0.4,0 0.6,0c0.1,0 0.2,0 0.3,0c0.1,0 0.2,0 0.3,0c0,-2.667 0,-5.333 0,-8c2.667,0 5.333,0 8,0c0,-0.1 0,-0.2 0,-0.3c0,-0.1 0,-0.2 0,-0.3c0,-0.2 0,-0.4 0,-0.6c0,-1.867 0,-3.733 0,-5.6c0,-0.3 0,-0.6 0,-0.9c0,-0.1 0,-0.2 0,-0.3c-2.667,0 -5.333,0 -8,0z" fill="#ffffffff"/>
 </g>

</svg>