<svg width="64" height="64" xmlns="http://www.w3.org/2000/svg" version="1.1">
 <g>
  <title>Layer 1</title>
  <path id="svg_14" d="m33,41.9c0,-2.967 0,-5.933 0,-8.9c2.967,0 5.933,0 8.9,0c-0.4,4.7 -4.2,8.5 -8.9,8.9c0,0 0,0 0,0zm-10.9,-8.9c2.967,0 5.933,0 8.9,0c0,2.967 0,5.933 0,8.9c-4.7,-0.4 -8.5,-4.2 -8.9,-8.9c0,0 0,0 0,0zm9.9,-11c5.2,0 9.4,3.9 9.9,9c-2.967,0 -5.933,0 -8.9,0c-0.667,0 -1.333,0 -2,0c-2.967,0 -5.933,0 -8.9,0c0.5,-5.1 4.7,-9 9.9,-9c0,0 0,0 0,0zm0,-3c-7.2,0 -13,5.8 -13,13c0,7.2 5.8,13 13,13c7.2,0 13,-5.8 13,-13c0,-7.2 -5.8,-13 -13,-13c0,0 0,0 0,0z" fill="#ffffffff"/>
 </g>

</svg>