<svg width="64" height="64" xmlns="http://www.w3.org/2000/svg" version="1.1">
 <g>
  <title>Layer 1</title>
  <path fill="#ffffffff" d="m28,32c-0.333,-0.667 -0.667,-1.333 -1,-2c-1,0 -2,0 -3,0c-0.333,0.667 -0.667,1.333 -1,2c0,4.333 0,8.667 0,13c1.667,0 3.333,0 5,0c0,-4.333 0,-8.667 0,-13z" id="svg_6"/>
  <path fill="#ffffffff" d="m25.5,18c0,0 -1.5,4.8 -1.5,8.5c0,1.167 0,2.333 0,3.5c1,0 2,0 3,0c0,-1.167 0,-2.333 0,-3.5c0,-3.7 -1.5,-8.5 -1.5,-8.5c0,0 0,0 0,0z" id="svg_7"/>
  <path fill="#ffffffff" d="m35,32c-0.333,-0.667 -0.667,-1.333 -1,-2c-1,0 -2,0 -3,0c-0.333,0.667 -0.667,1.333 -1,2c0,4.333 0,8.667 0,13c1.667,0 3.333,0 5,0c0,-4.333 0,-8.667 0,-13z" id="svg_8"/>
  <path fill="#ffffffff" d="m32.5,18c0,0 -1.5,4.8 -1.5,8.5c0,1.167 0,2.333 0,3.5c1,0 2,0 3,0c0,-1.167 0,-2.333 0,-3.5c0,-3.7 -1.5,-8.5 -1.5,-8.5c0,0 0,0 0,0z" id="svg_9"/>
  <path fill="#ffffffff" d="m42,32c-0.333,-0.667 -0.667,-1.333 -1,-2c-1,0 -2,0 -3,0c-0.333,0.667 -0.667,1.333 -1,2c0,4.333 0,8.667 0,13c1.667,0 3.333,0 5,0c0,-4.333 0,-8.667 0,-13z" id="svg_10"/>
  <path fill="#ffffffff" d="m39.5,18c0,0 -1.5,4.8 -1.5,8.5c0,1.167 0,2.333 0,3.5c1,0 2,0 3,0c0,-1.167 0,-2.333 0,-3.5c0,-3.7 -1.5,-8.5 -1.5,-8.5c0,0 0,0 0,0z" id="svg_11"/>
 </g>

</svg>