<?xml version="1.0" encoding="UTF-8" standalone="no"?>
<!DOCTYPE svg PUBLIC "-//W3C//DTD SVG 20010904//EN" "http://www.w3.org/TR/2001/REC-SVG-20010904/DTD/svg10.dtd"[]>
<svg version="1.1" id="Frosty Editor v1.0.7.0" xmlns="http://www.w3.org/2000/svg" d1p1:xlink="http://www.w3.org/1999/xlink" viewBox="0 0 40 40" xmlns:d1p1="xmlns">
  <path stroke="none" fill="#ffffffff" d="M 36.000,16.000 C 36.000,11.100 31.900,2.000 27.000,2.000 27.000,7.000 27.000,12.000 27.000,17.000 25.667,18.333 24.333,19.667 23.000,21.000 21.000,21.000 19.000,21.000 17.000,21.000 15.667,19.667 14.333,18.333 13.000,17.000 13.000,12.000 13.000,7.000 13.000,2.000 8.100,2.000 4.000,11.100 4.000,16.000 4.000,17.667 4.000,19.333 4.000,21.000 7.000,24.000 10.000,27.000 13.000,30.000 13.000,32.667 13.000,35.333 13.000,38.000 17.667,38.000 22.333,38.000 27.000,38.000 27.000,35.667 27.000,33.333 27.000,31.000 30.000,27.667 33.000,24.333 36.000,21.000 36.000,19.333 36.000,17.667 36.000,16.000 36.000,16.000 36.000,16.000 36.000,16.000 Z " />
</svg>