<?xml version='1.0' encoding='utf-8'?>
<svg xmlns="http://www.w3.org/2000/svg" viewBox="0 0 128 128">
  <g fill="#ffffff">
    <path d="M 84.650,76.980 C 71.373,76.980 58.097,76.980 44.820,76.980 41.977,69.603 39.133,62.227 36.290,54.850 41.980,57.310 47.670,59.770 53.360,62.230 57.153,54.853 60.947,47.477 64.740,40.100 68.533,47.477 72.327,54.853 76.120,62.230 81.810,59.770 87.500,57.310 93.190,54.850 90.347,62.227 87.503,69.603 84.660,76.980 84.657,76.980 84.653,76.980 84.650,76.980 Z M 64.140,24.350 C 42.300,24.350 24.600,42.050 24.600,63.890 24.600,85.730 42.300,103.430 64.140,103.430 85.980,103.430 103.680,85.730 103.680,63.890 103.680,42.050 85.980,24.350 64.140,24.350 64.140,24.350 64.140,24.350 64.140,24.350 Z " />
    <path d="M 7.110,30.410 C 14.900,22.620 22.690,14.830 30.480,7.040 30.480,14.830 30.480,22.620 30.480,30.410 22.690,30.410 14.900,30.410 7.110,30.410 7.110,30.410 7.110,30.410 7.110,30.410 Z " />
    <path d="M 121.000,30.410 C 113.210,22.620 105.420,14.830 97.630,7.040 97.630,14.830 97.630,22.620 97.630,30.410 105.420,30.410 113.210,30.410 121.000,30.410 121.000,30.410 121.000,30.410 121.000,30.410 Z " />
    <path d="M 7.000,97.590 C 14.790,105.380 22.580,113.170 30.370,120.960 30.370,113.170 30.370,105.380 30.370,97.590 22.580,97.590 14.790,97.590 7.000,97.590 7.000,97.590 7.000,97.590 7.000,97.590 Z " />
    <path d="M 120.890,97.590 C 113.100,105.380 105.310,113.170 97.520,120.960 97.520,113.170 97.520,105.380 97.520,97.590 105.310,97.590 113.100,97.590 120.890,97.590 120.890,97.590 120.890,97.590 120.890,97.590 Z " />
  </g>
</svg>