<?xml version='1.0' encoding='utf-8'?>
<svg xmlns="http://www.w3.org/2000/svg" viewBox="0 0 128 128">
  <g fill="#ffffff">
    <path d="M 50.130,36.250 C 50.130,60.037 50.130,83.823 50.130,107.610 40.490,97.753 30.850,87.897 21.210,78.040 21.210,64.110 21.210,50.180 21.210,36.250 30.850,36.250 40.490,36.250 50.130,36.250 50.130,36.250 50.130,36.250 50.130,36.250 Z " />
    <path d="M 77.870,36.250 C 77.870,60.037 77.870,83.823 77.870,107.610 87.510,97.753 97.150,87.897 106.790,78.040 106.790,64.110 106.790,50.180 106.790,36.250 97.150,36.250 87.510,36.250 77.870,36.250 77.870,36.250 77.870,36.250 77.870,36.250 Z " />
    <path d="M 80.180,25.660 C 75.460,23.823 70.740,21.987 66.020,20.150 66.020,17.113 66.020,14.077 66.020,11.040 66.697,10.293 67.373,9.547 68.050,8.800 68.050,8.197 68.050,7.593 68.050,6.990 65.350,6.990 62.650,6.990 59.950,6.990 59.950,7.593 59.950,8.197 59.950,8.800 60.627,9.547 61.303,10.293 61.980,11.040 61.980,14.077 61.980,17.113 61.980,20.150 57.260,21.987 52.540,23.823 47.820,25.660 47.820,26.853 47.820,28.047 47.820,29.240 51.190,29.240 54.560,29.240 57.930,29.240 57.930,57.793 57.930,86.347 57.930,114.900 59.953,116.933 61.977,118.967 64.000,121.000 66.023,118.967 68.047,116.933 70.070,114.900 70.070,86.347 70.070,57.793 70.070,29.240 73.440,29.240 76.810,29.240 80.180,29.240 80.180,28.047 80.180,26.853 80.180,25.660 80.180,25.660 80.180,25.660 80.180,25.660 Z " />
  </g>
</svg>