<?xml version='1.0' encoding='utf-8'?>
<svg xmlns="http://www.w3.org/2000/svg" viewBox="0 0 128 128">
  <g fill="#ffffff">
    <path d="M 63.960,16.540 C 70.447,22.950 76.933,29.360 83.420,35.770 76.933,42.310 70.447,48.850 63.960,55.390 63.960,42.440 63.960,29.490 63.960,16.540 63.960,16.540 63.960,16.540 63.960,16.540 Z M 92.770,35.770 C 83.167,26.180 73.563,16.590 63.960,7.000 54.380,16.590 44.800,26.180 35.220,35.770 44.800,45.360 54.380,54.950 63.960,64.540 73.563,54.950 83.167,45.360 92.770,35.770 92.770,35.770 92.770,35.770 92.770,35.770 Z M 39.230,96.560 C 39.230,88.560 39.230,80.560 39.230,72.560 37.573,70.923 35.917,69.287 34.260,67.650 34.260,65.023 34.260,62.397 34.260,59.770 40.967,66.397 47.673,73.023 54.380,79.650 55.677,78.370 56.973,77.090 58.270,75.810 42.320,60.047 26.370,44.283 10.420,28.520 10.420,30.940 10.420,33.360 10.420,35.780 10.420,35.780 10.420,35.780 10.420,35.780 10.420,35.780 10.420,59.780 10.420,59.780 12.077,61.417 13.733,63.053 15.390,64.690 15.390,67.460 15.390,70.230 15.390,73.000 23.340,80.853 31.290,88.707 39.240,96.560 39.237,96.560 39.233,96.560 39.230,96.560 Z M 27.790,117.280 C 29.127,118.520 30.463,119.760 31.800,121.000 52.447,100.590 73.093,80.180 93.740,59.770 93.740,62.397 93.740,65.023 93.740,67.650 92.083,69.287 90.427,70.923 88.770,72.560 88.770,80.560 88.770,88.560 88.770,96.560 96.720,88.707 104.670,80.853 112.620,73.000 112.620,70.230 112.620,67.460 112.620,64.690 114.277,63.053 115.933,61.417 117.590,59.780 117.590,49.363 117.590,38.947 117.590,28.530 87.657,58.113 57.723,87.697 27.790,117.280 27.790,117.280 27.790,117.280 27.790,117.280 Z M 68.580,93.880 C 77.697,102.900 86.813,111.920 95.930,120.940 97.267,119.700 98.603,118.460 99.940,117.220 90.780,108.160 81.620,99.100 72.460,90.040 71.163,91.320 69.867,92.600 68.570,93.880 68.573,93.880 68.577,93.880 68.580,93.880 Z " />
  </g>
</svg>