<?xml version='1.0' encoding='utf-8'?>
<svg xmlns="http://www.w3.org/2000/svg" viewBox="0 0 128 128">
  <g fill="#ffffff">
    <path d="M 72.780,50.690 C 69.857,48.683 66.933,46.677 64.010,44.670 61.087,46.677 58.163,48.683 55.240,50.690 56.243,47.290 57.247,43.890 58.250,40.490 55.440,38.330 52.630,36.170 49.820,34.010 53.363,33.917 56.907,33.823 60.450,33.730 61.637,30.390 62.823,27.050 64.010,23.710 65.197,27.050 66.383,30.390 67.570,33.730 71.113,33.823 74.657,33.917 78.200,34.010 75.390,36.170 72.580,38.330 69.770,40.490 70.773,43.890 71.777,47.290 72.780,50.690 72.780,50.690 72.780,50.690 72.780,50.690 Z M 17.880,14.000 C 17.880,39.633 17.880,65.267 17.880,90.900 23.007,90.900 28.133,90.900 33.260,90.900 33.260,85.760 33.260,80.620 33.260,75.480 38.387,75.480 43.513,75.480 48.640,75.480 48.640,70.353 48.640,65.227 48.640,60.100 58.893,60.100 69.147,60.100 79.400,60.100 79.400,65.227 79.400,70.353 79.400,75.480 84.527,75.480 89.653,75.480 94.780,75.480 94.780,80.607 94.780,85.733 94.780,90.860 99.907,90.860 105.033,90.860 110.160,90.860 110.160,65.240 110.160,39.620 110.160,14.000 79.400,14.000 48.640,14.000 17.880,14.000 17.880,14.000 17.880,14.000 17.880,14.000 Z " />
    <path d="M 17.850,106.310 C 48.617,106.310 79.383,106.310 110.150,106.310 110.150,108.873 110.150,111.437 110.150,114.000 79.383,114.000 48.617,114.000 17.850,114.000 17.850,111.437 17.850,108.873 17.850,106.310 Z " />
  </g>
</svg>