<?xml version='1.0' encoding='utf-8'?>
<svg xmlns="http://www.w3.org/2000/svg" viewBox="0 0 128 128">
  <g fill="#ffffff">
    <path d="M 39.110,64.000 C 39.110,70.840 43.060,76.760 48.800,79.610 48.800,69.207 48.800,58.803 48.800,48.400 43.060,51.250 39.110,57.160 39.110,64.010 39.110,64.007 39.110,64.003 39.110,64.000 Z " />
    <path d="M 88.890,64.000 C 88.890,70.840 84.940,76.760 79.200,79.610 79.200,69.207 79.200,58.803 79.200,48.400 84.940,51.250 88.890,57.160 88.890,64.010 88.890,64.007 88.890,64.003 88.890,64.000 Z " />
    <path d="M 80.180,25.660 C 75.460,23.823 70.740,21.987 66.020,20.150 66.020,17.113 66.020,14.077 66.020,11.040 66.020,11.040 68.050,8.800 68.050,8.800 68.050,8.197 68.050,7.593 68.050,6.990 65.350,6.990 62.650,6.990 59.950,6.990 59.950,7.593 59.950,8.197 59.950,8.800 59.950,8.800 61.980,11.040 61.980,11.040 61.980,14.077 61.980,17.113 61.980,20.150 61.980,20.150 47.820,25.660 47.820,25.660 47.820,26.853 47.820,28.047 47.820,29.240 47.820,29.240 57.930,29.240 57.930,29.240 57.930,29.240 57.930,106.810 57.930,114.900 59.953,116.933 61.977,118.967 64.000,121.000 66.023,118.967 68.047,116.933 70.070,114.900 70.070,106.810 70.070,29.240 70.070,29.240 73.440,29.240 76.810,29.240 80.180,29.240 80.180,29.240 80.180,25.660 80.180,25.660 80.180,25.660 80.180,25.660 80.180,25.660 Z " />
    <path d="M 40.550,88.540 C 34.440,82.490 30.650,74.110 30.650,64.860 30.650,55.610 34.390,47.380 40.400,41.350 37.473,38.423 34.547,35.497 31.620,32.570 23.360,40.840 18.250,52.250 18.250,64.870 18.250,77.490 23.430,89.040 31.780,97.320 34.703,94.397 37.627,91.473 40.550,88.550 40.550,88.547 40.550,88.543 40.550,88.540 Z " />
    <path d="M 96.400,32.590 C 93.473,35.517 90.547,38.443 87.620,41.370 93.620,47.400 97.350,55.700 97.350,64.860 97.350,74.020 93.570,82.470 87.470,88.520 90.393,91.443 93.317,94.367 96.240,97.290 104.580,89.010 109.750,77.540 109.750,64.860 109.750,52.180 104.650,40.860 96.410,32.590 96.407,32.590 96.403,32.590 96.400,32.590 Z " />
  </g>
</svg>