<?xml version='1.0' encoding='utf-8'?>
<svg xmlns="http://www.w3.org/2000/svg" viewBox="0 0 128 128">
  <g fill="#ffffff">
    <path d="M 64.030,60.160 C 66.373,68.093 68.717,76.027 71.060,83.960 75.113,80.153 79.167,76.347 83.220,72.540 80.780,79.857 78.340,87.173 75.900,94.490 84.473,90.780 93.047,87.070 101.620,83.360 89.090,95.900 76.560,108.440 64.030,120.980 51.480,108.440 38.930,95.900 26.380,83.360 34.953,87.070 43.527,90.780 52.100,94.490 49.660,87.173 47.220,79.857 44.780,72.540 49.193,76.347 53.607,80.153 58.020,83.960 60.023,76.027 62.027,68.093 64.030,60.160 64.030,60.160 64.030,60.160 64.030,60.160 Z " />
    <path d="M 121.000,63.990 C 110.670,67.693 100.340,71.397 90.010,75.100 92.097,67.533 94.183,59.967 96.270,52.400 89.403,57.400 82.537,62.400 75.670,67.400 71.780,54.847 67.890,42.293 64.000,29.740 60.030,42.293 56.060,54.847 52.090,67.400 45.220,62.400 38.350,57.400 31.480,52.400 33.567,59.967 35.653,67.533 37.740,75.100 27.493,71.407 17.247,67.713 7.000,64.020 26.000,45.020 45.000,26.020 64.000,7.020 83.000,26.010 102.000,45.000 121.000,63.990 121.000,63.990 121.000,63.990 121.000,63.990 Z " />
  </g>
</svg>