<?xml version="1.0"?>
<svg xmlns="http://www.w3.org/2000/svg" viewBox="0 0 256 128">
  <path fill="#fff" d="M 147.001,90.339 C 147.001,90.339 147.432,92.517 146.513,92.803 143.635,93.699 137.329,95.664 134.356,96.590 133.366,96.898 132.001,96.154 131.746,95.092 127.970,86.455 126.051,73.901 125.338,68.269 130.702,67.987 136.065,67.704 141.429,67.422 142.160,72.211 143.881,81.782 147.001,90.339 147.001,90.339 147.001,90.339 147.001,90.339 Z M 121.638,56.950 C 120.262,56.543 117.131,56.651 116.174,57.230 114.565,60.670 115.082,60.473 115.473,63.807 115.286,63.620 115.099,63.434 114.912,63.247 113.281,62.255 113.370,59.898 113.352,58.211 113.346,57.642 113.762,57.149 113.511,56.811 112.998,56.997 112.484,57.184 111.970,57.370 111.069,60.222 111.220,62.951 114.001,64.339 117.036,64.246 119.514,64.040 122.549,63.946 124.773,62.177 123.677,57.856 121.638,56.950 121.638,56.950 121.638,56.950 121.638,56.950 Z M 69.001,46.339 C 69.001,46.339 68.580,45.394 67.688,45.394 60.499,45.394 53.309,45.394 46.120,45.394 44.745,45.394 44.123,47.398 44.123,47.398 44.123,51.416 44.123,55.434 44.123,59.452 44.123,59.452 46.121,60.708 49.119,59.452 51.607,58.411 63.645,52.007 67.783,50.093 68.988,50.093 69.001,48.339 69.001,48.339 69.001,47.673 69.001,47.006 69.001,46.339 69.001,46.339 69.001,46.339 69.001,46.339 Z M 216.001,49.340 C 211.668,49.340 207.334,49.340 203.001,49.340 202.262,49.340 201.625,48.935 201.278,48.339 198.519,48.339 195.760,48.339 193.001,48.339 193.001,48.673 193.001,49.006 193.001,49.340 193.001,50.444 192.106,51.339 191.001,51.339 189.668,51.339 188.334,51.339 187.001,51.339 187.001,52.006 187.001,52.673 187.001,53.339 187.001,54.444 186.105,55.339 185.001,55.339 172.001,55.339 159.001,55.339 146.001,55.339 146.001,54.673 146.001,54.006 146.001,53.340 145.001,53.340 144.001,53.340 143.001,53.340 143.001,56.340 143.001,59.339 143.001,62.339 143.001,63.840 141.013,64.444 141.013,64.444 135.372,64.741 129.731,65.038 124.090,65.335 121.168,65.320 111.922,65.280 110.001,65.339 108.310,65.392 107.521,66.557 107.001,67.339 105.334,70.886 101.380,78.827 102.601,77.079 102.074,78.082 101.001,80.339 101.001,80.339 101.001,80.339 99.690,81.573 98.866,81.340 96.218,80.592 91.326,79.928 88.671,79.178 87.842,78.944 87.328,76.799 87.328,76.799 87.328,76.799 90.910,70.532 93.485,67.366 95.250,65.196 96.211,63.374 97.799,61.008 98.589,59.831 99.001,57.671 99.001,56.340 99.001,54.356 99.251,53.520 96.628,53.363 96.176,53.336 95.001,52.902 95.001,51.339 95.001,51.006 95.001,50.673 95.001,50.339 93.334,50.339 91.667,50.339 90.001,50.339 90.001,50.309 90.001,50.278 90.001,50.248 89.843,50.304 89.677,50.339 89.501,50.339 88.672,50.339 88.001,49.668 88.001,48.839 88.001,48.673 88.001,48.506 88.001,48.339 85.667,48.339 83.334,48.339 81.001,48.339 81.001,49.444 80.105,50.339 79.001,50.339 77.667,50.339 76.334,50.339 75.001,50.339 75.001,50.339 72.101,50.542 70.103,51.423 67.721,53.193 44.121,64.477 44.121,64.477 44.121,64.477 42.109,65.567 42.123,66.486 42.049,67.468 40.711,67.327 40.001,67.339 38.580,67.152 38.001,65.339 38.001,65.339 38.001,65.339 38.063,44.277 38.001,42.339 37.938,40.402 40.001,40.339 40.001,40.339 53.001,40.339 66.001,40.339 79.001,40.339 79.739,40.339 80.377,40.744 80.723,41.339 83.149,41.339 85.575,41.339 88.001,41.339 88.001,41.173 88.001,41.006 88.001,40.839 88.001,40.011 88.672,39.340 89.501,39.340 89.677,39.340 89.843,39.375 90.001,39.431 90.001,39.401 90.001,39.370 90.001,39.340 91.667,39.340 93.334,39.340 95.001,39.340 95.001,37.527 97.001,37.339 97.001,37.339 97.001,36.673 97.001,36.006 97.001,35.339 97.001,34.235 97.896,32.339 99.001,32.339 99.334,32.339 99.668,32.339 100.001,32.339 101.105,32.339 102.188,33.391 103.001,34.339 103.601,35.339 104.201,36.339 104.801,37.339 117.534,37.339 130.268,37.339 143.001,37.339 143.001,38.006 143.001,38.673 143.001,39.340 144.001,39.340 145.001,39.340 146.001,39.340 146.001,38.673 146.001,38.006 146.001,37.339 157.365,37.339 168.728,37.339 180.092,37.339 180.617,36.256 181.142,35.173 181.667,34.089 182.355,32.477 183.464,31.339 184.445,31.339 184.704,31.339 184.964,31.339 185.223,31.339 186.205,31.339 187.001,32.571 187.001,34.089 187.001,36.173 187.001,38.256 187.001,40.339 188.001,40.339 189.001,40.339 190.001,40.339 190.334,40.339 190.668,40.339 191.001,40.339 192.106,40.339 193.001,41.235 193.001,42.339 193.001,42.673 193.001,43.006 193.001,43.339 195.760,43.339 198.519,43.339 201.278,43.339 201.625,42.744 202.262,42.339 203.001,42.339 207.334,42.339 211.668,42.339 216.001,42.339 217.105,42.339 218.001,43.235 218.001,44.339 218.001,45.339 218.001,46.339 218.001,47.339 218.001,48.444 217.105,49.340 216.001,49.340 216.001,49.340 216.001,49.340 216.001,49.340 Z " />
</svg>