<?xml version="1.0" encoding="UTF-8" standalone="no"?>
<!DOCTYPE svg PUBLIC "-//W3C//DTD SVG 20010904//EN" "http://www.w3.org/TR/2001/REC-SVG-20010904/DTD/svg10.dtd"[]>
<svg version="1.1" id="Frosty Editor v1.0.7.0" xmlns="http://www.w3.org/2000/svg" d1p1:xlink="http://www.w3.org/1999/xlink" viewBox="0 0 40 40" xmlns:d1p1="xmlns">
  <path stroke="none" fill="#000" d="M 23.000,30.600 C 23.000,29.400 23.000,28.200 23.000,27.000 21.000,27.000 19.000,27.000 17.000,27.000 17.000,28.200 17.000,29.400 17.000,30.600 13.400,29.600 10.500,26.700 9.400,23.000 10.600,23.000 11.800,23.000 13.000,23.000 13.000,21.000 13.000,19.000 13.000,17.000 11.800,17.000 10.600,17.000 9.400,17.000 10.400,13.400 13.300,10.500 17.000,9.400 17.000,10.600 17.000,11.800 17.000,13.000 19.000,13.000 21.000,13.000 23.000,13.000 23.000,11.800 23.000,10.600 23.000,9.400 26.600,10.400 29.500,13.300 30.600,17.000 29.400,17.000 28.200,17.000 27.000,17.000 27.000,19.000 27.000,21.000 27.000,23.000 28.200,23.000 29.400,23.000 30.600,23.000 29.500,26.600 26.600,29.500 23.000,30.600 23.000,30.600 23.000,30.600 23.000,30.600 Z M 40.000,17.000 C 38.900,17.000 37.800,17.000 36.700,17.000 35.500,10.000 30.000,4.500 23.000,3.300 23.000,2.200 23.000,1.100 23.000,0.000 21.000,0.000 19.000,0.000 17.000,0.000 17.000,1.100 17.000,2.200 17.000,3.300 10.000,4.500 4.500,10.000 3.300,17.000 2.200,17.000 1.100,17.000 0.000,17.000 0.000,19.000 0.000,21.000 0.000,23.000 1.100,23.000 2.200,23.000 3.300,23.000 4.500,30.000 10.000,35.500 17.000,36.700 17.000,37.800 17.000,38.900 17.000,40.000 19.000,40.000 21.000,40.000 23.000,40.000 23.000,38.900 23.000,37.800 23.000,36.700 30.000,35.500 35.500,30.000 36.700,23.000 37.800,23.000 38.900,23.000 40.000,23.000 40.000,21.000 40.000,19.000 40.000,17.000 40.000,17.000 40.000,17.000 40.000,17.000 Z " />
</svg>