<?xml version="1.0"?>
<svg xmlns="http://www.w3.org/2000/svg" viewBox="0 0 256 128">
  <path fill="#fff" d="M 122.062,92.000 C 122.062,93.105 121.166,94.000 120.062,94.000 115.062,94.667 110.062,95.333 105.062,96.000 103.957,96.000 103.062,95.105 103.062,94.000 103.062,89.667 103.062,85.333 103.062,81.000 109.395,80.532 115.729,80.064 122.062,79.595 122.062,83.730 122.062,87.865 122.062,92.000 122.062,92.000 122.062,92.000 122.062,92.000 Z M 88.062,77.000 C 91.098,76.907 93.575,76.700 96.610,76.607 98.833,74.838 97.738,70.517 95.700,69.611 94.323,69.203 91.192,69.312 90.235,69.891 88.626,73.331 89.143,73.134 89.534,76.467 89.347,76.281 89.160,76.094 88.974,75.908 87.341,74.916 87.432,72.558 87.413,70.871 87.407,70.302 87.823,69.810 87.573,69.471 87.059,69.658 86.545,69.844 86.031,70.031 85.130,72.883 85.281,75.611 88.062,77.000 88.062,77.000 88.062,77.000 88.062,77.000 Z M 236.062,60.000 C 223.395,60.000 210.729,60.000 198.062,60.000 198.062,60.333 198.062,60.667 198.062,61.000 198.062,62.105 197.166,63.000 196.062,63.000 194.395,63.000 192.729,63.000 191.062,63.000 191.061,64.104 190.166,65.000 189.062,65.000 188.395,65.000 187.729,65.000 187.062,65.000 187.062,66.092 187.062,67.185 187.062,68.277 187.657,68.624 188.062,69.262 188.062,70.000 188.062,70.667 188.062,71.333 188.062,72.000 188.062,72.749 187.645,73.394 187.035,73.737 187.047,73.824 187.062,73.910 187.062,74.000 187.062,80.000 187.062,86.000 187.062,92.000 187.062,93.105 186.167,94.000 185.062,94.000 183.958,94.000 183.062,93.105 183.062,92.000 183.062,86.000 183.062,80.000 183.062,74.000 183.062,73.910 183.077,73.824 183.088,73.737 182.479,73.394 182.062,72.749 182.062,72.000 182.062,71.333 182.062,70.667 182.062,70.000 182.062,69.262 182.466,68.624 183.062,68.277 183.062,67.185 183.062,66.092 183.062,65.000 164.729,65.000 146.395,65.000 128.062,65.000 128.062,64.667 128.062,64.333 128.062,64.000 127.062,64.000 126.062,64.000 125.062,64.000 125.062,64.667 125.062,65.333 125.062,66.000 125.062,68.667 125.062,71.333 125.062,74.000 125.062,75.500 123.074,76.105 123.074,76.105 114.766,76.735 106.459,77.365 98.151,77.995 95.229,77.981 85.983,77.940 84.062,78.000 82.371,78.053 81.582,79.218 81.062,80.000 79.395,83.546 75.441,91.488 76.662,89.739 76.135,90.743 75.062,93.000 75.062,93.000 75.062,93.000 73.751,94.233 72.927,94.001 70.279,93.253 65.387,92.589 62.732,91.839 61.903,91.605 61.389,89.460 61.389,89.460 61.389,89.460 64.971,83.192 67.546,80.026 69.312,77.856 70.272,76.034 71.860,73.669 72.650,72.491 73.062,70.331 73.062,69.000 73.062,67.016 73.312,66.181 70.689,66.023 70.237,65.996 69.062,65.562 69.062,64.000 69.062,63.333 69.062,62.667 69.062,62.000 67.729,62.000 66.395,62.000 65.062,62.000 63.395,62.333 61.728,62.667 60.062,63.000 48.062,68.000 36.062,73.000 24.062,78.000 23.395,78.333 22.729,78.667 22.062,79.000 22.062,79.000 19.858,79.464 19.608,77.463 19.358,75.463 18.062,57.204 17.946,55.141 17.830,53.079 19.062,53.000 19.062,53.000 35.729,53.000 52.395,53.000 69.062,53.000 69.062,52.667 69.062,52.333 69.062,52.000 69.062,50.188 71.062,50.000 71.062,50.000 73.729,50.000 76.395,50.000 79.062,50.000 80.062,50.000 81.062,50.000 82.062,50.000 82.062,48.000 82.062,46.000 82.062,44.000 80.728,44.000 79.395,44.000 78.062,44.000 77.729,44.333 77.395,44.667 77.062,45.000 73.062,44.667 69.062,44.333 65.062,44.000 65.062,41.000 65.062,38.000 65.062,35.000 69.062,34.667 73.062,34.333 77.062,34.000 77.395,34.333 77.729,34.667 78.062,35.000 78.729,35.000 79.395,35.000 80.062,35.000 80.062,34.667 80.062,34.333 80.062,34.000 80.062,32.895 80.957,32.000 82.062,32.000 82.728,32.000 83.395,32.000 84.062,32.000 85.166,32.000 86.062,32.895 86.062,34.000 86.062,35.000 86.062,36.000 86.062,37.000 88.100,35.860 93.845,33.792 97.326,33.221 97.609,32.814 97.892,32.407 98.175,32.000 102.137,32.000 106.100,32.000 110.062,32.000 110.062,32.000 108.109,36.641 104.968,41.364 101.826,46.087 106.156,47.471 109.637,47.471 109.779,47.471 109.920,47.471 110.062,47.471 110.062,48.314 110.062,49.157 110.062,50.000 111.062,50.000 112.062,50.000 113.062,50.000 117.062,50.000 121.062,50.000 125.062,50.000 125.062,50.333 125.062,50.667 125.062,51.000 126.062,51.000 127.062,51.000 128.062,51.000 128.062,50.667 128.062,50.333 128.062,50.000 148.395,50.000 168.729,50.000 189.062,50.000 190.166,50.000 191.061,50.895 191.062,51.999 192.062,52.000 193.062,52.000 194.062,52.000 194.729,52.000 195.395,52.000 196.062,52.000 197.166,52.000 198.062,52.895 198.062,54.000 198.062,54.333 198.062,54.667 198.062,55.000 210.729,55.000 223.395,55.000 236.062,55.000 237.166,55.000 238.062,55.895 238.062,57.000 238.062,57.333 238.062,57.667 238.062,58.000 238.062,59.105 237.166,60.000 236.062,60.000 236.062,60.000 236.062,60.000 236.062,60.000 Z " />
</svg>