<?xml version="1.0"?>
<svg xmlns="http://www.w3.org/2000/svg" viewBox="0 0 256 128">
  <path fill="#fff" d="M 211.500,54.011 C 204.500,54.011 197.500,54.011 190.500,54.011 190.500,54.010 190.500,54.008 190.500,54.007 189.500,54.007 188.500,54.007 187.500,54.007 187.500,54.673 187.500,55.340 187.500,56.007 188.500,56.007 189.500,56.007 190.500,56.007 190.500,56.003 190.500,56.000 190.500,55.996 197.500,55.996 204.500,55.996 211.500,55.996 211.500,55.334 211.500,54.673 211.500,54.011 211.500,54.011 211.500,54.011 211.500,54.011 Z M 139.500,43.007 C 131.833,43.007 124.167,43.007 116.500,43.007 116.500,44.673 116.500,46.340 116.500,48.006 117.167,48.006 117.833,48.006 118.500,48.006 119.167,48.006 119.833,48.006 120.500,48.006 126.167,48.006 131.833,48.006 137.500,48.006 138.167,48.006 138.833,48.006 139.500,48.006 139.500,46.340 139.500,44.673 139.500,43.007 139.500,43.007 139.500,43.007 139.500,43.007 Z M 110.457,66.801 C 109.130,66.405 106.112,66.510 105.189,67.073 103.638,70.415 104.136,70.224 104.513,73.463 104.333,73.282 104.153,73.101 103.973,72.919 102.399,71.956 102.486,69.665 102.468,68.026 102.462,67.473 102.864,66.994 102.622,66.665 102.127,66.846 101.631,67.028 101.136,67.209 100.267,69.980 100.413,72.631 103.094,73.981 106.021,73.890 108.409,74.082 111.336,73.992 113.479,72.272 112.423,67.681 110.457,66.801 110.457,66.801 110.457,66.801 110.457,66.801 Z M 241.361,54.996 C 237.796,54.996 234.232,54.996 230.667,54.996 229.911,54.996 229.250,54.602 228.870,54.011 224.423,54.011 219.975,54.011 215.528,54.011 215.528,54.673 215.528,55.334 215.528,55.996 217.477,55.996 219.426,55.996 221.375,55.996 222.556,55.996 223.514,56.869 223.514,58.048 223.514,58.649 223.514,59.250 223.514,59.851 223.514,61.030 222.556,61.986 221.375,61.986 212.083,61.986 202.792,61.986 193.500,61.986 193.500,61.993 193.500,62.000 193.500,62.007 191.500,62.007 189.500,62.007 187.500,62.007 187.500,62.013 187.500,62.020 187.500,62.027 187.435,63.147 186.514,64.039 185.375,64.039 184.417,64.039 183.458,64.039 182.500,64.039 182.500,65.121 182.500,66.202 182.500,67.284 183.095,67.630 183.500,68.268 183.500,69.007 183.500,69.673 183.500,70.340 183.500,71.007 183.500,71.756 183.083,72.401 182.473,72.743 182.485,72.830 182.500,72.916 182.500,73.006 182.500,79.006 182.500,85.006 182.500,91.006 182.500,92.111 181.604,93.006 180.500,93.006 179.395,93.006 178.500,92.111 178.500,91.006 178.500,85.006 178.500,79.006 178.500,73.006 178.500,72.916 178.515,72.830 178.526,72.743 177.917,72.401 177.500,71.756 177.500,71.007 177.500,70.340 177.500,69.673 177.500,69.007 177.500,68.268 177.905,67.630 178.500,67.284 178.500,66.202 178.500,65.121 178.500,64.039 171.500,64.039 164.500,64.039 157.500,64.039 157.500,64.028 157.500,64.017 157.500,64.007 156.500,64.007 155.500,64.007 154.500,64.007 154.500,64.017 154.500,64.028 154.500,64.039 150.681,64.039 146.861,64.039 143.042,64.039 141.905,64.039 140.985,63.151 140.916,62.034 139.777,62.033 138.639,62.033 137.500,62.033 137.500,62.024 137.500,62.015 137.500,62.007 136.833,62.007 136.167,62.007 135.500,62.007 135.500,63.040 135.500,64.073 135.500,65.106 136.123,65.106 136.745,65.106 137.368,65.106 138.549,65.106 139.507,66.063 139.507,67.242 139.507,74.116 139.507,80.991 139.507,87.865 139.507,89.044 138.549,90.001 137.368,90.001 131.123,90.001 124.877,90.001 118.632,90.001 117.451,90.001 116.493,89.044 116.493,87.865 116.493,80.991 116.493,74.116 116.493,67.242 116.493,66.063 117.451,65.106 118.632,65.106 119.255,65.106 119.877,65.106 120.500,65.106 120.500,64.073 120.500,63.040 120.500,62.007 119.833,62.007 119.167,62.007 118.500,62.007 118.500,62.015 118.500,62.023 118.500,62.032 117.160,62.031 115.819,62.031 114.479,62.031 114.479,65.192 114.479,68.353 114.479,71.514 114.479,73.384 113.146,76.035 110.958,76.035 108.771,76.035 101.047,75.977 99.194,76.035 97.564,76.086 97.846,76.323 97.345,77.083 95.738,80.529 91.926,88.058 93.103,86.359 92.595,87.334 91.560,89.528 91.560,89.528 91.560,89.528 90.297,90.726 89.502,90.500 86.949,89.773 83.187,88.064 80.627,87.335 79.827,87.108 78.378,86.087 78.378,86.087 78.378,86.087 81.754,80.853 84.236,77.777 85.938,75.669 86.315,75.069 87.846,72.770 88.608,71.627 89.199,71.333 89.199,70.040 89.199,68.112 87.751,66.140 85.222,65.987 84.941,65.970 77.736,65.987 77.736,65.987 77.736,65.987 74.528,65.938 74.528,63.851 74.528,63.579 74.528,63.306 74.528,63.033 70.606,63.033 66.685,63.033 62.764,63.033 57.671,63.033 50.421,66.010 42.444,68.636 42.444,69.720 42.444,70.804 42.444,71.888 42.444,72.643 41.053,74.024 40.305,74.024 31.750,74.024 23.194,74.024 14.639,74.024 13.891,74.024 12.500,72.643 12.500,71.888 12.500,63.880 12.500,55.871 12.500,47.862 12.500,47.108 13.891,46.010 14.639,46.010 23.551,46.010 32.463,46.010 41.375,46.010 44.984,46.010 50.398,52.289 58.971,50.013 67.543,47.737 76.667,39.978 76.667,39.978 76.667,39.099 76.667,38.221 76.667,37.342 76.667,36.560 78.227,34.993 80.276,34.993 80.894,34.993 81.512,34.993 82.131,34.993 84.631,35.630 90.222,36.853 91.639,37.342 91.639,37.342 92.952,38.469 92.972,39.978 112.808,39.978 132.643,39.978 152.479,39.978 153.290,39.978 154.494,41.092 154.494,42.095 154.494,42.389 154.494,42.684 154.494,42.978 154.496,42.978 154.498,42.978 154.500,42.978 154.500,42.988 154.500,42.997 154.500,43.007 155.500,43.007 156.500,43.007 157.500,43.007 157.500,42.997 157.500,42.988 157.500,42.978 166.792,42.978 176.083,42.978 185.375,42.978 186.519,42.978 187.446,43.878 187.503,45.006 187.502,45.006 187.501,45.006 187.500,45.006 187.500,46.006 187.500,47.006 187.500,48.007 190.833,48.007 194.167,48.007 197.500,48.007 197.500,48.011 197.500,48.016 197.500,48.021 202.167,48.021 206.833,48.021 211.500,48.021 211.500,45.040 211.500,42.059 211.500,39.078 211.500,37.899 212.374,36.942 213.555,36.942 214.737,36.942 215.528,37.899 215.528,39.078 215.528,42.059 215.528,45.040 215.528,48.021 219.975,48.021 224.423,48.021 228.870,48.021 229.250,47.430 229.911,47.036 230.667,47.036 234.232,47.036 237.796,47.036 241.361,47.036 242.542,47.036 243.500,47.993 243.500,49.172 243.500,50.401 243.500,51.631 243.500,52.860 243.500,54.040 242.542,54.996 241.361,54.996 241.361,54.996 241.361,54.996 241.361,54.996 Z " />
</svg>