<?xml version="1.0"?>
<svg xmlns="http://www.w3.org/2000/svg" viewBox="0 0 256 128">
  <path fill="#fff" d="M 93.456,100.836 C 93.456,100.836 91.862,103.415 89.759,103.415 82.379,103.415 75.000,103.415 67.620,103.415 66.975,102.125 66.330,100.836 65.685,99.546 75.068,99.546 84.451,99.546 93.835,99.546 93.646,100.168 93.509,100.629 93.456,100.836 93.456,100.836 93.456,100.836 93.456,100.836 Z M 119.851,69.884 C 128.879,69.884 131.458,64.725 131.458,60.856 131.458,55.698 127.590,53.333 125.010,53.118 122.861,53.118 120.711,53.118 118.562,53.118 114.693,58.277 116.198,64.296 119.851,66.015 121.524,66.802 119.851,67.734 118.562,67.304 109.964,65.585 110.609,55.698 110.824,53.118 109.104,52.903 104.375,52.469 104.375,60.856 104.375,69.078 105.826,69.884 119.851,69.884 119.851,69.884 119.851,69.884 119.851,69.884 Z M 189.493,42.801 C 188.633,42.801 187.774,42.801 186.914,42.801 186.914,44.950 186.914,47.100 186.914,49.249 186.914,50.674 185.759,51.829 184.335,51.829 169.289,51.829 154.242,51.829 139.196,51.829 136.617,51.829 134.468,55.698 135.327,55.698 134.683,72.248 123.729,72.463 121.141,72.463 115.781,72.464 113.456,72.463 109.534,72.463 103.301,72.463 102.426,71.365 99.819,80.201 98.641,84.192 96.509,90.955 95.034,95.677 84.665,95.677 74.296,95.677 63.928,95.677 67.322,84.500 70.717,73.323 74.111,62.146 74.111,62.146 76.979,52.350 74.713,51.829 72.993,51.829 71.274,51.829 69.554,51.829 68.130,51.829 66.975,50.674 66.975,49.249 66.975,48.390 66.975,47.530 66.975,46.670 66.975,45.245 68.130,44.091 69.554,44.091 69.554,39.792 69.554,35.493 69.554,31.194 69.554,29.769 70.709,28.615 72.134,28.615 74.122,28.615 76.110,28.615 78.098,28.615 78.098,28.131 78.098,27.647 78.098,27.164 78.098,25.739 79.253,24.584 80.678,24.584 81.967,24.584 83.257,24.584 84.547,24.584 85.971,24.584 87.126,25.739 87.126,27.164 87.126,27.647 87.126,28.131 87.126,28.615 116.090,28.615 145.053,28.615 174.017,28.615 174.716,28.131 175.414,27.647 176.113,27.164 176.113,25.739 177.268,24.584 178.692,24.584 179.982,24.584 181.271,24.584 182.561,24.584 183.986,24.584 185.141,25.739 185.141,27.164 185.141,27.694 185.141,28.225 185.141,28.756 186.168,29.096 186.914,30.053 186.914,31.194 187.774,31.194 188.633,31.194 189.493,31.194 190.918,31.194 192.072,32.349 192.072,33.773 192.072,35.923 192.072,38.072 192.072,40.222 192.072,41.646 190.918,42.801 189.493,42.801 189.493,42.801 189.493,42.801 189.493,42.801 Z " />
</svg>