<?xml version="1.0"?>
<svg xmlns="http://www.w3.org/2000/svg" viewBox="0 0 256 128">
  <path fill="#fff" d="M 195.000,54.500 C 186.333,54.500 177.667,54.500 169.000,54.500 169.000,55.167 169.000,55.834 169.000,56.501 170.000,56.501 171.000,56.501 172.000,56.501 179.667,56.501 187.333,56.500 195.000,56.500 195.000,55.834 195.000,55.167 195.000,54.500 195.000,54.500 195.000,54.500 195.000,54.500 Z M 110.253,62.731 C 109.082,62.384 106.419,62.476 105.604,62.969 104.342,64.725 105.135,65.410 106.000,67.500 105.841,67.342 105.159,67.659 105.000,67.500 103.612,66.657 103.219,65.238 103.204,63.803 103.198,63.319 103.552,62.900 103.339,62.612 102.902,62.771 102.465,62.929 102.028,63.088 101.261,65.514 101.390,67.834 103.756,69.016 106.338,68.936 107.445,68.761 110.028,68.681 111.919,67.176 111.987,63.501 110.253,62.731 110.253,62.731 110.253,62.731 110.253,62.731 Z M 220.000,54.500 C 213.712,54.500 207.424,54.500 201.136,54.500 201.136,55.167 201.136,55.834 201.136,56.500 202.757,56.500 204.379,56.500 206.000,56.500 206.940,56.500 207.538,57.019 207.538,57.959 207.538,58.526 207.538,59.093 207.538,59.660 207.538,60.599 206.940,61.500 206.000,61.500 193.667,61.500 181.333,61.500 169.000,61.500 169.000,62.167 169.000,62.834 169.000,63.500 169.000,64.440 167.940,65.500 167.000,65.500 153.333,65.500 139.667,65.500 126.000,65.500 125.235,65.498 124.000,65.455 124.000,63.500 123.984,62.760 123.972,62.096 123.964,61.500 120.309,61.500 116.655,61.500 113.000,61.500 113.000,63.500 113.000,65.500 113.000,67.500 113.000,69.612 111.000,70.501 111.000,70.501 108.514,70.488 101.634,70.450 100.000,70.501 98.562,70.545 98.243,70.902 97.801,71.567 96.383,74.583 93.020,81.337 94.058,79.850 93.610,80.704 92.697,82.623 92.697,82.623 92.697,82.623 91.582,83.673 90.881,83.474 88.629,82.838 84.467,82.274 82.208,81.636 81.503,81.437 81.066,79.612 81.066,79.612 81.066,79.612 84.113,74.282 86.303,71.590 87.805,69.744 88.622,68.194 89.973,66.182 90.646,65.181 90.996,63.344 90.996,62.211 90.996,61.847 91.020,61.488 91.036,61.147 90.507,60.858 90.145,60.304 90.145,59.660 90.145,59.958 90.145,60.256 90.145,60.553 89.010,60.539 87.876,60.525 86.742,60.510 82.414,61.440 78.085,62.369 73.757,63.299 73.757,63.299 69.561,64.328 63.777,66.625 57.993,68.922 40.755,75.560 40.755,75.560 40.113,75.908 39.470,76.257 38.827,76.605 38.827,76.605 36.552,77.071 36.552,74.969 36.552,72.136 34.000,61.495 34.000,57.109 34.000,54.952 36.049,54.557 36.049,54.557 36.049,54.557 58.229,52.004 68.546,50.756 70.862,50.476 73.000,52.500 73.000,52.500 77.000,52.500 81.000,52.500 85.000,52.500 86.278,52.166 87.556,51.832 88.834,51.498 89.807,50.404 90.996,49.454 90.996,49.454 91.095,49.454 91.194,49.454 91.293,49.454 91.614,48.990 92.151,48.634 92.697,48.534 92.697,47.990 92.697,47.446 92.697,46.902 92.697,45.963 93.459,45.201 94.398,45.201 95.816,45.201 97.234,45.201 98.652,45.201 99.591,45.201 100.353,45.963 100.353,46.902 100.353,47.435 100.353,47.968 100.353,48.501 122.569,48.501 144.784,48.501 167.000,48.501 167.656,48.501 168.403,48.926 168.799,49.500 168.866,49.500 168.933,49.500 169.000,49.500 170.000,49.501 171.000,49.501 172.000,49.501 179.670,49.501 187.340,49.501 195.010,49.500 195.010,48.243 195.010,46.986 195.010,45.729 195.010,45.051 196.353,44.500 198.010,44.500 199.667,44.500 201.011,45.051 201.011,45.729 201.011,46.986 201.011,48.243 201.011,49.500 207.341,49.500 213.670,49.500 220.000,49.500 220.939,49.500 222.000,50.216 222.000,51.155 222.000,51.722 222.000,52.289 222.000,52.856 222.000,53.795 220.939,54.500 220.000,54.500 220.000,54.500 220.000,54.500 220.000,54.500 Z " />
</svg>