<?xml version="1.0"?>
<svg xmlns="http://www.w3.org/2000/svg" viewBox="0 0 256 128">
  <path fill="#fff" d="M 120.500,98.000 C 120.500,98.925 119.427,100.000 118.500,100.000 116.500,100.000 114.500,100.000 112.500,100.000 111.573,100.000 110.500,98.925 110.500,98.000 110.500,91.333 110.500,84.667 110.500,78.000 113.833,78.000 117.167,78.000 120.500,78.000 120.500,84.667 120.500,91.333 120.500,98.000 120.500,98.000 120.500,98.000 120.500,98.000 Z M 136.556,53.672 C 136.411,51.937 134.377,50.781 134.377,50.781 133.167,50.781 131.956,50.781 130.746,50.781 129.002,50.781 129.293,54.828 130.019,55.840 130.746,56.851 130.164,56.851 129.293,56.562 127.550,55.984 126.388,53.238 126.388,50.781 125.904,50.781 125.419,50.781 124.935,50.781 123.337,50.781 123.503,55.117 123.483,56.562 123.463,57.996 127.163,58.078 131.189,58.139 135.111,58.200 136.701,55.406 136.556,53.672 136.556,53.672 136.556,53.672 136.556,53.672 Z M 195.821,47.002 C 189.946,47.002 184.070,47.002 178.195,47.002 177.534,47.002 176.968,46.576 176.694,45.998 174.629,45.998 172.565,45.998 170.500,45.998 170.500,46.332 170.500,46.666 170.500,47.000 170.500,47.925 169.888,49.014 168.961,49.014 165.807,49.014 162.654,49.014 159.500,49.014 159.500,49.009 159.500,49.005 159.500,49.000 158.500,49.000 157.500,49.000 156.500,49.000 156.500,49.005 156.500,49.009 156.500,49.014 156.495,49.014 156.490,49.014 156.485,49.014 156.485,49.938 155.619,50.605 154.692,50.605 154.132,50.605 153.573,50.605 153.013,50.605 152.453,51.442 151.894,52.279 151.334,53.116 150.863,53.116 150.393,53.116 149.922,53.116 149.150,56.565 148.185,64.217 147.980,65.577 147.130,71.212 146.269,76.303 146.269,76.303 146.092,76.543 145.914,76.784 145.737,77.025 142.466,76.341 139.194,75.656 135.923,74.972 135.923,74.972 135.304,72.659 135.827,69.191 136.234,66.494 138.191,60.760 138.318,55.623 138.180,55.625 138.043,55.626 137.904,55.628 137.073,57.262 135.253,58.572 133.707,58.977 132.109,59.395 126.007,59.475 123.635,58.977 123.263,58.870 122.858,58.847 122.500,58.858 122.500,58.905 122.500,58.953 122.500,59.000 122.162,59.000 121.825,59.000 121.487,59.000 121.487,64.336 121.487,69.673 121.487,75.009 117.488,75.009 113.489,75.009 109.490,75.009 109.490,67.606 109.490,60.203 109.490,52.800 104.453,52.304 94.865,51.351 90.776,50.880 89.306,50.711 88.500,50.000 88.500,50.000 88.500,48.667 88.500,47.333 88.500,46.000 81.406,46.003 74.311,46.007 67.217,46.010 66.270,52.115 65.323,58.220 64.376,64.326 64.376,65.250 63.624,66.000 62.697,66.000 61.858,66.000 61.018,66.000 60.179,66.000 59.252,66.000 58.500,65.250 58.500,64.326 58.500,57.111 58.500,49.897 58.500,42.683 58.500,41.758 59.252,41.009 60.179,41.009 68.953,41.006 77.726,41.003 86.500,41.001 87.167,41.001 87.833,41.000 88.500,41.000 88.500,39.333 88.500,37.667 88.500,36.000 88.500,36.000 89.191,34.027 90.479,34.027 90.494,34.027 90.509,34.027 90.524,34.027 90.524,33.134 90.524,32.242 90.524,31.349 90.524,30.424 91.276,29.675 92.203,29.675 94.161,29.396 96.120,29.116 98.078,28.837 99.006,28.837 99.507,29.587 99.507,30.512 99.507,31.684 99.507,32.855 99.507,34.027 116.549,34.027 133.590,34.027 150.632,34.027 151.053,32.786 151.473,31.544 151.894,30.302 152.471,28.952 153.401,28.000 154.225,28.000 154.443,28.000 154.660,28.000 154.878,28.000 155.703,28.000 156.485,29.031 156.485,30.302 156.485,33.191 156.485,36.079 156.485,38.967 156.490,38.967 156.495,38.967 156.500,38.967 156.500,38.978 156.500,38.989 156.500,39.000 157.500,39.000 158.500,39.000 159.500,39.000 159.500,38.989 159.500,38.978 159.500,38.967 162.654,38.967 165.807,38.967 168.961,38.967 169.888,38.967 170.500,40.075 170.500,41.000 170.500,41.326 170.500,41.653 170.500,41.979 172.565,41.979 174.629,41.979 176.694,41.979 176.968,41.401 177.534,40.975 178.195,40.975 184.070,40.975 189.946,40.975 195.821,40.975 196.749,40.975 197.500,41.808 197.500,42.733 197.500,43.570 197.500,44.407 197.500,45.244 197.500,46.169 196.749,47.002 195.821,47.002 195.821,47.002 195.821,47.002 195.821,47.002 Z " />
</svg>