<?xml version="1.0"?>
<svg xmlns="http://www.w3.org/2000/svg" viewBox="0 0 256 128">
  <path fill="#fff" d="M 117.500,78.000 C 117.500,79.105 116.605,80.000 115.500,80.000 110.167,80.667 104.833,81.333 99.500,82.000 98.395,82.000 97.500,81.105 97.500,80.000 97.500,76.628 97.500,73.257 97.500,69.885 104.167,69.628 110.833,69.372 117.500,69.116 117.500,72.077 117.500,75.038 117.500,78.000 117.500,78.000 117.500,78.000 117.500,78.000 Z M 108.500,47.000 C 102.500,47.000 96.500,47.000 90.500,47.000 90.500,48.333 90.500,49.667 90.500,51.000 96.500,51.000 102.500,51.000 108.500,51.000 108.500,49.667 108.500,48.333 108.500,47.000 108.500,47.000 108.500,47.000 108.500,47.000 Z M 86.500,66.576 C 84.577,66.667 82.654,66.758 80.731,66.848 80.973,67.707 81.340,68.920 81.500,69.000 81.750,69.125 82.500,70.000 82.500,70.000 81.833,70.000 81.167,70.000 80.500,70.000 80.500,70.000 79.116,69.302 78.635,66.947 78.257,66.964 77.878,66.982 77.500,67.000 77.500,67.667 77.500,68.333 77.500,69.000 77.500,70.105 78.396,71.000 79.500,71.000 80.833,71.000 82.167,71.000 83.500,71.000 84.605,71.000 85.500,70.105 85.500,69.000 85.500,69.000 86.500,67.873 86.500,67.000 86.500,66.859 86.500,66.718 86.500,66.576 86.500,66.576 86.500,66.576 86.500,66.576 Z M 242.500,59.000 C 218.500,59.000 194.500,59.000 170.500,59.000 168.500,59.000 166.500,59.000 164.500,59.000 164.500,59.333 164.500,59.667 164.500,60.000 164.500,60.333 164.500,60.667 164.500,61.000 164.500,62.104 163.605,63.000 162.500,63.000 160.833,63.078 159.167,63.157 157.500,63.235 157.500,64.249 157.500,65.263 157.500,66.277 158.095,66.624 158.500,67.262 158.500,68.000 158.500,68.667 158.500,69.333 158.500,70.000 158.500,70.749 158.083,71.394 157.473,71.737 157.485,71.824 157.500,71.910 157.500,72.000 157.500,78.000 157.500,84.000 157.500,90.000 157.500,91.105 156.604,92.000 155.500,92.000 154.396,92.000 153.500,91.105 153.500,90.000 153.500,84.000 153.500,78.000 153.500,72.000 153.500,71.910 153.515,71.824 153.526,71.737 152.917,71.394 152.500,70.749 152.500,70.000 152.500,69.333 152.500,68.667 152.500,68.000 152.500,67.262 152.905,66.624 153.500,66.277 153.500,65.326 153.500,64.375 153.500,63.424 132.160,64.428 110.820,65.432 89.481,66.436 89.288,68.307 87.500,71.000 87.500,71.000 87.500,72.104 85.605,73.000 84.500,73.000 82.167,73.000 79.833,73.000 77.500,73.000 76.396,73.000 75.500,72.104 75.500,71.000 75.500,69.333 75.500,67.667 75.500,66.000 74.500,66.000 73.500,66.000 72.500,66.000 71.167,66.000 70.500,68.000 70.500,68.000 70.500,68.000 69.667,69.833 69.500,72.000 69.333,74.167 68.667,76.166 67.500,76.000 60.167,76.500 56.500,77.000 56.500,77.000 56.500,77.000 42.750,78.750 35.500,80.000 28.250,81.250 16.667,83.000 14.500,83.000 12.333,83.000 11.500,81.333 11.500,80.000 11.500,74.333 11.500,68.667 11.500,63.000 11.500,60.000 13.000,60.167 14.500,60.000 27.500,60.000 40.500,60.000 53.500,60.000 55.667,60.000 55.000,62.500 55.500,64.000 57.667,66.500 63.917,65.000 65.500,63.000 66.333,60.000 68.167,60.000 69.500,60.000 71.500,60.000 73.500,60.000 75.500,60.000 75.500,59.000 75.500,58.000 75.500,57.000 75.500,56.000 75.500,55.000 75.500,54.000 75.592,54.000 75.685,54.000 75.777,54.000 76.124,53.405 76.762,53.000 77.500,53.000 78.500,53.000 79.500,53.000 80.500,53.000 80.500,51.895 81.395,51.000 82.500,51.000 83.833,51.000 85.167,51.000 86.500,51.000 86.500,49.667 86.500,48.333 86.500,47.000 84.741,47.000 82.982,47.000 81.223,47.000 80.876,47.595 80.239,48.000 79.500,48.000 76.500,48.000 73.500,48.000 70.500,48.000 69.396,48.000 68.500,47.105 68.500,46.000 68.500,44.667 68.500,43.333 68.500,42.000 68.500,40.896 69.396,40.000 70.500,40.000 73.500,40.000 76.500,40.000 79.500,40.000 80.239,40.000 80.876,40.405 81.223,41.000 86.648,41.000 92.074,41.000 97.500,41.000 97.500,40.000 97.500,39.000 97.500,38.000 97.500,36.895 98.395,36.000 99.500,36.000 100.167,36.000 100.833,36.000 101.500,36.000 102.605,36.000 103.500,36.895 103.500,38.000 103.500,39.000 103.500,40.000 103.500,41.000 107.833,41.000 112.167,41.000 116.500,41.000 116.500,39.895 117.270,40.250 118.500,40.000 122.500,39.333 126.500,38.667 130.500,38.000 132.833,38.000 135.167,38.000 137.500,38.000 138.605,38.000 139.500,38.895 139.500,40.000 139.500,42.667 139.500,45.333 139.500,48.000 139.500,49.105 138.605,50.000 137.500,50.000 135.111,50.000 132.722,50.000 130.333,50.000 126.389,49.333 122.444,48.667 118.500,48.000 117.395,47.750 116.500,48.105 116.500,47.000 115.167,47.000 113.833,47.000 112.500,47.000 112.500,48.333 112.500,49.667 112.500,51.000 114.167,51.000 115.833,51.000 117.500,51.000 118.604,51.000 119.500,51.895 119.500,53.000 160.500,53.000 201.500,53.000 242.500,53.000 243.605,53.000 244.500,53.896 244.500,55.000 244.500,55.667 244.500,56.333 244.500,57.000 244.500,58.105 243.605,59.000 242.500,59.000 242.500,59.000 242.500,59.000 242.500,59.000 Z " />
</svg>