<svg xmlns="http://www.w3.org/2000/svg" viewBox="0 0 28 28" xml:space="preserve" fit="" height="100%" width="100%" preserveAspectRatio="xMidYMid meet" focusable="false"><path d="m5.4 19.2-.6-1.8.6-.6L6.6 18l5.2-5.2-5.4-5.6L5.1 4l3.3 1.3 5.6 5.6 5.6-5.6L22.8 4l-1.3 3.3-5.6 5.6 5.2 5.2 1.2-1.2.6.6-.6 1.8 1.1 1.1c.6-1.2 1-2.4 1-3.8V.2L14 3.6 3.4.2v16.4c0 1.3.4 2.6 1 3.7l1-1.1z" fill="currentColor" data-darkreader-inline-fill="" style="--darkreader-inline-fill: currentColor;"></path><path d="m20.4 21.3-1.8.6-.6-.6 1.2-1.2-5.2-5.2L8.7 20l1.2 1.2-.6.6-1.8-.6-1.4 1.4C9.3 26.1 14 28 14 28s4.7-1.9 7.8-5.2l-1.4-1.5z" fill="currentColor" data-darkreader-inline-fill="" style="--darkreader-inline-fill: currentColor;"></path></svg>