<svg xmlns="http://www.w3.org/2000/svg" viewBox="0 0 28 28" xml:space="preserve" fit="" height="100%" width="100%" preserveAspectRatio="xMidYMid meet" focusable="false"><path d="m14.1 20.2-3.4 6.9c1.1.3 2.2.4 3.3.4 1.2 0 2.4-.2 3.5-.5l-3.4-6.8z" fill="currentColor" data-darkreader-inline-fill="" style="--darkreader-inline-fill: currentColor;"></path><path d="M14 .5C6.5.5.5 6.5.5 14c0 5.4 3.2 10.1 7.8 12.3l4.4-8.8-2.4-4.7c-.3.3-.7.8-1.2 1.4-1.4 1.9-4.6 2.6-4.6 2.6L2 11.5c1.4-.1 3.3-.7 4.2-2C7.1 8.3 8 7.9 8 7.9l2-1.1 4 7.9 4-7.9 2 1.1s.9.4 1.8 1.7c.9 1.3 2.8 1.9 4.2 2l-2.5 5.3s-3.2-.7-4.6-2.6c-.5-.7-.9-1.1-1.2-1.4l-2.3 4.6 4.5 8.8c4.5-2.2 7.6-6.8 7.6-12.2C27.5 6.5 21.5.5 14 .5z" fill="currentColor" data-darkreader-inline-fill="" style="--darkreader-inline-fill: currentColor;"></path></svg>