<svg xmlns="http://www.w3.org/2000/svg" xml:space="preserve" viewBox="0 0 28 28" fit="" height="100%" width="100%" preserveAspectRatio="xMidYMid meet" focusable="false"><path fill="currentColor" d="M16.1 15.3c.7.2 1.4.5 2.1.9l6.7-4.3-4.5 6.5c.5.7.9 1.5 1.1 2.4l3.7 1.3c1.6-2.3 2.6-5 2.6-8C27.8 6.5 21.7.4 14.2.4l1.9 14.9zM6.3 20.7c.2-.9.6-1.7 1.1-2.4l-4.5-6.5 6.7 4.3c.6-.4 1.3-.7 2.1-.9l2-15C6.3.4.3 6.5.3 14c0 3 .9 5.7 2.6 8l3.4-1.3zM18.4 22.4c0-2.4-2-4.3-4.5-4.3S9.4 20 9.4 22.4H3.2c2.5 3.2 6.4 5.3 10.8 5.3s8.3-2.1 10.8-5.3h-6.4zm-4.5 2.9c-1.6 0-2.9-1.3-2.9-2.9 0-1.6 1.3-2.9 2.9-2.9 1.6 0 2.9 1.3 2.9 2.9 0 1.6-1.3 2.9-2.9 2.9z" data-darkreader-inline-fill="" style="--darkreader-inline-fill: currentColor;"></path></svg>