<svg xmlns="http://www.w3.org/2000/svg" xml:space="preserve" viewBox="0 0 28 28" fit="" height="100%" width="100%" preserveAspectRatio="xMidYMid meet" focusable="false"><path fill="#4D4D4D" d="M19.2-55.2H19v-.1z" data-darkreader-inline-fill="" style="--darkreader-inline-fill: var(--darkreader-text-4d4d4d, #b8b1a8);"></path><path fill="currentColor" d="M14 0C6.3 0 0 6.3 0 14s6.3 14 14 14 14-6.3 14-14S21.7 0 14 0zm9 23-9-9-9 9c-2-2-3.2-4.6-3.6-7.3h2.8c.2 1.1.6 2.2 1.1 3.1l4.8-4.8-4.8-4.8c-.5 1-.9 2-1.1 3.1H1.4C1.8 9.6 3 7.1 5 5l9 9 9-9c2 2 3.2 4.6 3.6 7.3h-2.8c-.2-1.1-.5-2.1-1.1-3.1L17.9 14l4.8 4.8c.5-1 .9-2 1.1-3.1h2.8c-.4 2.7-1.6 5.2-3.6 7.3z" data-darkreader-inline-fill="" style="--darkreader-inline-fill: currentColor;"></path></svg>