<svg xmlns="http://www.w3.org/2000/svg" viewBox="0 0 28 28" xml:space="preserve" fit="" height="100%" width="100%" preserveAspectRatio="xMidYMid meet" focusable="false"><path d="M14 3.6 2.9 0v17.2c0 5.2 5.2 8.9 8.5 10.8l1-.5v-2.8c-1.7-.3-3.4-1.1-4.7-2.5L20.3 9.5c3.5 3.5 3.5 9.1 0 12.6-1.4 1.4-3.1 2.2-4.8 2.5v2.8l1 .5c3.3-1.8 8.6-5.6 8.6-10.8V-.1L14 3.6zm0 9.9h-.1c-.6 0-1.2.2-1.6.7-.4.4-.7 1-.7 1.6v.1l-.7.7c-.3-1.1 0-2.3.8-3.1.6-.6 1.4-.9 2.2-.9.3 0 .6 0 .9.1l-.8.8zm2.3-2.2c-.7-.4-1.6-.6-2.4-.6-1.4 0-2.7.5-3.6 1.5-1 1-1.5 2.3-1.5 3.6 0 .9.2 1.7.6 2.4l-.6.6c-1.4-2.3-1-5.3.9-7.3 1.2-1.2 2.7-1.8 4.2-1.8 1.1 0 2.1.3 3 .8l-.6.8zm2.1-2.1c-1.3-.8-2.8-1.3-4.4-1.3-2.2 0-4.2.8-5.7 2.4-1.5 1.5-2.4 3.5-2.4 5.7 0 1.6.5 3.1 1.3 4.4l-.6.6c-2.4-3.5-2-8.2 1.1-11.3C9.4 7.9 11.7 7 14 7c1.7 0 3.5.5 5 1.5l-.6.7z" fill="currentColor" data-darkreader-inline-fill="" style="--darkreader-inline-fill: currentColor;"></path></svg>